<?xml version="1.0" encoding="UTF-8" standalone="no"?>
<!-- Created with Inkscape (http://www.inkscape.org/) -->

<svg
   xmlns:dc="http://purl.org/dc/elements/1.1/"
   xmlns:cc="http://creativecommons.org/ns#"
   xmlns:rdf="http://www.w3.org/1999/02/22-rdf-syntax-ns#"
   xmlns:svg="http://www.w3.org/2000/svg"
   xmlns="http://www.w3.org/2000/svg"
   xmlns:sodipodi="http://sodipodi.sourceforge.net/DTD/sodipodi-0.dtd"
   xmlns:inkscape="http://www.inkscape.org/namespaces/inkscape"
   width="744.09448819"
   height="1052.3622047"
   id="svg2"
   version="1.1"
   inkscape:version="0.48.4 r9939"
   sodipodi:docname="New document 1">
  <defs
     id="defs4">
    <inkscape:path-effect
       effect="skeletal"
       id="path-effect3019"
       is_visible="true"
       pattern="m 394.96964,455.36203 a 21.213203,21.213203 0 1 1 -42.4264,0 21.213203,21.213203 0 1 1 42.4264,0 z"
       copytype="single_stretched"
       prop_scale="1"
       scale_y_rel="false"
       spacing="0"
       normal_offset="0"
       tang_offset="0"
       prop_units="false"
       vertical_pattern="false"
       fuse_tolerance="0" />
    <inkscape:path-effect
       effect="spiro"
       id="path-effect3017"
       is_visible="true" />
  </defs>
  <sodipodi:namedview
     id="base"
     pagecolor="#ffffff"
     bordercolor="#666666"
     borderopacity="1.0"
     inkscape:pageopacity="0.0"
     inkscape:pageshadow="2"
     inkscape:zoom="0.7"
     inkscape:cx="81.540247"
     inkscape:cy="612.41928"
     inkscape:document-units="px"
     inkscape:current-layer="layer1"
     showgrid="false"
     inkscape:window-width="1600"
     inkscape:window-height="876"
     inkscape:window-x="0"
     inkscape:window-y="24"
     inkscape:window-maximized="1" />
  <metadata
     id="metadata7">
    <rdf:RDF>
      <cc:Work
         rdf:about="">
        <dc:format>image/svg+xml</dc:format>
        <dc:type
           rdf:resource="http://purl.org/dc/dcmitype/StillImage" />
        <dc:title></dc:title>
      </cc:Work>
    </rdf:RDF>
  </metadata>
  <g
     inkscape:label="Layer 1"
     inkscape:groupmode="layer"
     id="layer1">
    <rect
       style="fill:#000000;fill-opacity:1;stroke:none"
       id="rect2985"
       width="685.71429"
       height="914.28571"
       x="-12.007988"
       y="1.9437637" />
    <path
       inkscape:export-filename="/home/gan_hope326/Desktop/RAL/OutreachQM/img/spring.png"
       inkscape:export-xdpi="90"
       inkscape:export-ydpi="90"
       style="fill:#ffffff;fill-opacity:1;stroke:none"
       d="m 538.9112,64.424275 c -82.84271,0 -150,67.157285 -150,149.999995 0,82.84271 67.15729,150 150,150 82.84271,0 150,-67.15729 150,-150 0,-82.84271 -67.15729,-149.999995 -150,-149.999995 z m -70.375,73.687495 5.5,25.78125 23.75,111.71875 28.3125,-107.03125 14.5625,0.1875 24.40625,103.125 26.6875,-101.28125 4.9375,-18.65625 8.96875,17.0625 28.625,54.40625 c 1.33201,-0.26201 2.71618,-0.40625 4.125,-0.40625 11.71573,0 21.1875,9.50302 21.1875,21.21875 0,11.71573 -9.47177,21.21875 -21.1875,21.21875 -11.71573,0 -21.21875,-9.50302 -21.21875,-21.21875 0,-4.82293 1.63257,-9.24923 4.34375,-12.8125 l -20.15625,-38.34375 -29.4375,111.65625 -14.5625,-0.1875 -24.4375,-103.21875 -28.6875,108.46875 -14.59375,-0.34375 -24.8125,-116.625 -12.46875,34.65625 c 4.99508,3.88102 8.21875,9.9346 8.21875,16.75 0,11.71573 -9.47177,21.21875 -21.1875,21.21875 -11.71573,0 -21.21875,-9.50302 -21.21875,-21.21875 0,-11.25527 8.7668,-20.44983 19.84375,-21.15625 l 21.59375,-60.15625 8.90625,-24.8125 z"
       id="path2987"
       inkscape:connector-curvature="0" />
    <path
       style="fill:#ffffff;fill-opacity:1;stroke:none"
       d="m 381.83994,362.94146 c -82.84271,0 -150,67.15729 -150,150 0,82.84271 67.15729,150 150,150 82.84271,0 150,-67.15729 150,-150 0,-82.84271 -67.15729,-150 -150,-150 z m 5.0625,95.4375 c 12.83151,0 23.21875,10.41849 23.21875,23.25 0,0.8339 -0.0393,1.65756 -0.125,2.46875 0.38009,-0.0155 0.74124,-0.0625 1.125,-0.0625 15.34265,0 27.875,12.5636 27.875,27.90625 0,11.5555 -7.09074,21.50408 -17.15625,25.71875 2.79379,3.83503 4.4375,8.54832 4.4375,13.65625 0,12.83151 -10.38724,23.25 -23.21875,23.25 -6.95285,0 -13.21094,-3.06638 -17.46875,-7.90625 -5.11778,5.81941 -12.61912,9.5 -20.9375,9.5 -15.09239,0 -27.444,-12.12522 -27.84375,-27.125 -9.07338,-3.16252 -15.59375,-11.78605 -15.59375,-21.9375 0,-9.07423 5.22787,-16.95667 12.8125,-20.78125 -3.94202,-4.81063 -6.34375,-10.95227 -6.34375,-17.625 0,-15.34265 12.53235,-27.875 27.875,-27.875 5.47633,0 10.58748,1.62318 14.90625,4.375 4.20444,-4.20444 10.02174,-6.8125 16.4375,-6.8125 z m -31.34375,11.71875 c -10.32038,0 -18.5625,8.27338 -18.5625,18.59375 0,6.2811 3.05814,11.79753 7.78125,15.15625 1.91762,0.0256 3.7839,0.28667 5.5625,0.75 2.93537,-6.52245 8.30058,-11.72124 14.9375,-14.4375 -1.04354,-2.64153 -1.625,-5.51872 -1.625,-8.53125 0,-3.09772 0.61844,-6.04764 1.71875,-8.75 -2.8393,-1.75318 -6.20657,-2.78125 -9.8125,-2.78125 z m 55.5625,23.25 c -1.57258,0 -3.07606,0.20065 -4.53125,0.5625 -1.83334,2.9339 -4.30555,5.41813 -7.21875,7.28125 2.7003,4.29077 4.28125,9.36088 4.28125,14.78125 0,4.14866 -0.92167,8.07911 -2.5625,11.625 0.29402,0.18786 0.60107,0.35983 0.90625,0.53125 0.34584,-0.0153 0.71289,-0.0312 1.0625,-0.0312 3.60886,0 7.01536,0.81299 10.0625,2.28125 9.36488,-0.9898 16.59375,-8.79526 16.59375,-18.4375 0,-10.32037 -8.27337,-18.59375 -18.59375,-18.59375 z m -40.59375,4.78125 c -4.70539,1.3644 -8.59015,4.54123 -10.9375,8.71875 4.88234,-1.06133 9.0189,-4.03562 11.625,-8.09375 -0.23032,-0.21094 -0.46586,-0.40504 -0.6875,-0.625 z m 8.625,5.40625 c -3.40601,5.38226 -8.61549,9.52945 -14.75,11.59375 1.00211,1.6674 1.78263,3.46968 2.34375,5.375 8.01103,0.60031 15.10402,4.61888 19.8125,10.59375 0.90543,-0.6449 1.75804,-1.36229 2.53125,-2.15625 -3.65143,-4.71533 -5.84375,-10.60487 -5.84375,-17 0,-2.48775 0.31979,-4.92005 0.9375,-7.21875 -1.74017,-0.20232 -3.43021,-0.62241 -5.03125,-1.1875 z m 13.71875,5.09375 c -0.18976,1.07185 -0.3125,2.18332 -0.3125,3.3125 0,2.63008 0.52918,5.11462 1.5,7.375 0.19596,-1.08851 0.3125,-2.19585 0.3125,-3.34375 0,-2.61516 -0.53959,-5.09353 -1.5,-7.34375 z m -25.34375,21.34375 c -0.1033,0.83555 -0.27916,1.63187 -0.46875,2.4375 2.59654,1.37171 5.55854,2.15625 8.71875,2.15625 0.45463,0 0.89763,-0.0309 1.34375,-0.0625 -2.62179,-2.36693 -5.92076,-3.96884 -9.59375,-4.53125 z m -4.34375,10.84375 c -3.91008,5.3156 -10.02579,8.92576 -17,9.4375 0.97382,9.38201 8.81442,16.625 18.46875,16.625 6.88344,0 12.85006,-3.67632 16.0625,-9.1875 -0.57675,-2.02571 -0.90625,-4.16429 -0.90625,-6.375 0,-2.81698 0.48794,-5.50156 1.40625,-8 -1.76297,0.35232 -3.57433,0.53125 -5.4375,0.53125 -4.52552,0 -8.80627,-1.09956 -12.59375,-3.03125 z"
       id="path2987-2"
       inkscape:connector-curvature="0"
       inkscape:export-filename="/home/gan_hope326/Desktop/RAL/OutreachQM/img/atom.png"
       inkscape:export-xdpi="90"
       inkscape:export-ydpi="90" />
    <path
       sodipodi:type="arc"
       style="fill:#ffffff;fill-opacity:1;stroke:none"
       id="path2987-2-0"
       sodipodi:cx="-1010"
       sodipodi:cy="593.79077"
       sodipodi:rx="147.14285"
       sodipodi:ry="141.42857"
       d="m -862.85715,593.79077 a 147.14285,141.42857 0 1 1 -294.28575,0 147.14285,141.42857 0 1 1 294.28575,0 z"
       transform="matrix(1.0194175,0,0,1.060606,1183.1548,-453.21813)" />
  </g>
</svg>
