<!-- Created with Inkscape (http://www.inkscape.org/) -->
<svg xmlns:rdf="http://www.w3.org/1999/02/22-rdf-syntax-ns#" xmlns="http://www.w3.org/2000/svg" height="1052.4" width="744.09" version="1.1" xmlns:cc="http://creativecommons.org/ns#" xmlns:dc="http://purl.org/dc/elements/1.1/">
	<metadata>
		<rdf:RDF>
			<cc:Work rdf:about="">
				<dc:format>image/svg+xml</dc:format>
				<dc:type rdf:resource="http://purl.org/dc/dcmitype/StillImage"/>
				<dc:title/>
			</cc:Work>
		</rdf:RDF>
	</metadata>
	<g>
		<path d="m430,462.36a127.14,127.14,0,1,1,-254.29,0,127.14,127.14,0,1,1,254.29,0z" transform="matrix(0.56756755,0,0,0.56756755,-96.89189,714.94041)" fill="#FFF"/>
		<path fill="#800000" d="m18.589,932.37c-9.8539,12.338-15.75,27.979-15.75,44.997s5.8961,32.659,15.75,44.997h112.82c9.8539-12.338,15.75-27.979,15.75-44.997s-5.8961-32.659-15.75-44.997h-112.82z"/>
		<path d="m437.14,540.58a56.071,56.071,0,1,1,-112.14,0,56.071,56.071,0,1,1,112.14,0z" transform="matrix(0.56756755,0,0,0.56756755,-141.28379,670.54852)" fill="#FFF"/>
		<path stroke-linejoin="miter" d="m430,462.36a127.14,127.14,0,1,1,-254.29,0,127.14,127.14,0,1,1,254.29,0z" transform="matrix(0.56756755,0,0,0.56756755,-96.89189,714.94041)" stroke-dashoffset="0" stroke="#000" stroke-linecap="butt" stroke-miterlimit="4" stroke-dasharray="none" stroke-width="10" fill="none"/>
		<text style="letter-spacing:0px;text-anchor:middle;word-spacing:0px;text-align:center;" font-weight="bold" xml:space="preserve" font-size="39.7297287px" font-style="normal" font-stretch="normal" font-variant="normal" y="983.59973" x="75.0242" font-family="Delicious" line-height="100%" fill="#000000"><tspan x="75.0242" y="983.59973"><tspan y="983.59973" x="75.0242" line-height="100%">7</tspan></tspan></text>
	</g>
</svg>
